<?xml version="1.0" encoding="utf-8"?>
<!-- Generator: Adobe Illustrator 23.1.0, SVG Export Plug-In . SVG Version: 6.00 Build 0)  -->
<svg version="1.1" xmlns="http://www.w3.org/2000/svg" xmlns:xlink="http://www.w3.org/1999/xlink" x="0px" y="0px"
	 viewBox="0 0 513.1 513.1" style="enable-background:new 0 0 513.1 513.1;" xml:space="preserve">
<style type="text/css">
	.st0{fill:#A7C6DA;}
</style>
<g id="Calque_2">
	<polygon class="st0" points="20.5,119 250.4,6.8 490,126.6 490,352 259,501.2 20.5,337.2 	"/>
</g>
<g id="Calque_1">
	<path d="M239,208.2c-46.8-2.9-151-63-49.6-121.1c83.4-47.8,160.8-14.3,208.4,36.8c0,0-27.4,16.9-59.2,32
		c22.5-50.3-61.3-78.4-109.4-52.2s-52.8,79.7,65.5,76.6L239,208.2z M496.8,354.9v-235L251.7,0.5L16.3,113.8v226.7l242.7,172
		L496.8,354.9z M251.6,12.5L482,128.3L251.9,259.5L28.8,121.6L251.6,12.5z M482,142.4V345l-91.9,59.7V196.1L482,142.4z M375.1,205.9
		v209.3L259,488.4V271.9L375.1,205.9z"/>
</g>
</svg>
